{
  "accessors": [
    {
      "bufferView": 2,
      "componentType": 5126,
      "count": 772,
      "max": [
        0.017180699855089188,
        0.027355186641216278,
        0.017180699855089188
      ],
      "min": [
        -0.017180699855089188,
        0.0,
        -0.017180699855089188
      ],
      "type": "VEC3"
    },
    {
      "bufferView": 2,
      "byteOffset": 9264,
      "componentType": 5126,
      "count": 772,
      "max": [
        1.0,
        1.0,
        1.0
      ],
      "min": [
        -1.0,
        -1.0,
        -1.0
      ],
      "type": "VEC3"
    },
    {
      "bufferView": 1,
      "componentType": 5126,
      "count": 772,
      "max": [
        3.0,
        0.4518629014492035
      ],
      "min": [
        0.0,
        -0.07939136028289795
      ],
      "type": "VEC2"
    },
    {
      "bufferView": 0,
      "componentType": 5125,
      "count": 3894,
      "type": "SCALAR"
    },
    {
      "bufferView": 2,
      "byteOffset": 18528,
      "componentType": 5126,
      "count": 692,
      "max": [
        0.038037508726119995,
        0.12595582008361816,
        0.038037512451410294
      ],
      "min": [
        -0.0380374900996685,
        0.026078365743160248,
        -0.0380374975502491
      ],
      "type": "VEC3"
    },
    {
      "bufferView": 2,
      "byteOffset": 26832,
      "componentType": 5126,
      "count": 692,
      "max": [
        1.0,
        0.9944050908088684,
        1.0
      ],
      "min": [
        -1.0,
        -1.0,
        -1.0
      ],
      "type": "VEC3"
    },
    {
      "bufferView": 1,
      "byteOffset": 6176,
      "componentType": 5126,
      "count": 692,
      "max": [
        1.000000238418579,
        1.0
      ],
      "min": [
        0.0,
        0.08994998037815094
      ],
      "type": "VEC2"
    },
    {
      "bufferView": 0,
      "byteOffset": 15576,
      "componentType": 5125,
      "count": 3834,
      "type": "SCALAR"
    },
    {
      "bufferView": 2,
      "byteOffset": 35136,
      "componentType": 5126,
      "count": 661,
      "max": [
        0.007078196853399277,
        0.0695333182811737,
        0.00153430737555027
      ],
      "min": [
        -0.007078197784721851,
        0.024812577292323112,
        -0.0015343051636591554
      ],
      "type": "VEC3"
    },
    {
      "bufferView": 2,
      "byteOffset": 43068,
      "componentType": 5126,
      "count": 661,
      "max": [
        0.9543473720550537,
        0.954322338104248,
        0.999498724937439
      ],
      "min": [
        -0.9543473720550537,
        -0.954310953617096,
        -0.999498724937439
      ],
      "type": "VEC3"
    },
    {
      "bufferView": 1,
      "byteOffset": 11712,
      "componentType": 5126,
      "count": 661,
      "max": [
        1.0004321336746216,
        1.0
      ],
      "min": [
        -0.0004322637105360627,
        0.0
      ],
      "type": "VEC2"
    },
    {
      "bufferView": 0,
      "byteOffset": 30912,
      "componentType": 5125,
      "count": 3024,
      "type": "SCALAR"
    },
    {
      "bufferView": 2,
      "byteOffset": 51000,
      "componentType": 5126,
      "count": 291,
      "max": [
        0.007147063501179218,
        0.00305793434381485,
        0.007147063966840506
      ],
      "min": [
        -0.007147064432501793,
        1.7404556274414063e-05,
        -0.007147063966840506
      ],
      "type": "VEC3"
    },
    {
      "bufferView": 2,
      "byteOffset": 54492,
      "componentType": 5126,
      "count": 291,
      "max": [
        1.0,
        1.0,
        1.0
      ],
      "min": [
        -1.0,
        -0.9676904678344727,
        -1.0
      ],
      "type": "VEC3"
    },
    {
      "bufferView": 1,
      "byteOffset": 17000,
      "componentType": 5126,
      "count": 291,
      "max": [
        1.0,
        1.0
      ],
      "min": [
        0.0,
        0.01000000536441803
      ],
      "type": "VEC2"
    },
    {
      "bufferView": 0,
      "byteOffset": 43008,
      "componentType": 5125,
      "count": 1002,
      "type": "SCALAR"
    },
    {
      "bufferView": 2,
      "byteOffset": 57984,
      "componentType": 5126,
      "count": 1675,
      "max": [
        0.013113131746649742,
        0.08794287592172623,
        0.0006270417361520231
      ],
      "min": [
        -0.013113133609294891,
        0.02803947776556015,
        -0.0017011318122968078
      ],
      "type": "VEC3"
    },
    {
      "bufferView": 2,
      "byteOffset": 78084,
      "componentType": 5126,
      "count": 1675,
      "max": [
        1.0,
        1.0,
        1.0
      ],
      "min": [
        -1.0,
        -1.0,
        -1.0
      ],
      "type": "VEC3"
    },
    {
      "bufferView": 1,
      "byteOffset": 19328,
      "componentType": 5126,
      "count": 1675,
      "max": [
        1.0,
        1.0
      ],
      "min": [
        0.0,
        0.01000000536441803
      ],
      "type": "VEC2"
    },
    {
      "bufferView": 0,
      "byteOffset": 47016,
      "componentType": 5125,
      "count": 7878,
      "type": "SCALAR"
    },
    {
      "bufferView": 2,
      "byteOffset": 98184,
      "componentType": 5126,
      "count": 2086,
      "max": [
        0.014072651974856853,
        0.08468329906463623,
        0.00024306376872118562
      ],
      "min": [
        -0.014072652906179428,
        0.08216880261898041,
        -0.0012180772610008717
      ],
      "type": "VEC3"
    },
    {
      "bufferView": 2,
      "byteOffset": 123216,
      "componentType": 5126,
      "count": 2086,
      "max": [
        0.9838078022003174,
        0.9994312524795532,
        1.0
      ],
      "min": [
        -0.9838078022003174,
        -0.9994312524795532,
        -1.0
      ],
      "type": "VEC3"
    },
    {
      "bufferView": 1,
      "byteOffset": 32728,
      "componentType": 5126,
      "count": 2086,
      "max": [
        0.0,
        0.0
      ],
      "min": [
        0.0,
        0.0
      ],
      "type": "VEC2"
    },
    {
      "bufferView": 0,
      "byteOffset": 78528,
      "componentType": 5125,
      "count": 12444,
      "type": "SCALAR"
    }
  ],
  "asset": {
    "extras": {
      "author": "AleixoAlonso (https://sketchfab.com/AleixoAlonso)",
      "license": "CC-BY-4.0 (http://creativecommons.org/licenses/by/4.0/)",
      "source": "https://sketchfab.com/3d-models/incandescent-light-bulb-217c6b059c584243893b36ab76472ddd",
      "title": "Incandescent Light Bulb"
    },
    "generator": "Sketchfab-12.67.0",
    "version": "2.0"
  },
  "bufferViews": [
    {
      "buffer": 0,
      "byteLength": 128304,
      "name": "floatBufferViews",
      "target": 34963
    },
    {
      "buffer": 0,
      "byteLength": 49416,
      "byteOffset": 128304,
      "byteStride": 8,
      "name": "floatBufferViews",
      "target": 34962
    },
    {
      "buffer": 0,
      "byteLength": 148248,
      "byteOffset": 177720,
      "byteStride": 12,
      "name": "floatBufferViews",
      "target": 34962
    }
  ],
  "buffers": [
    {
      "byteLength": 325968,
      "uri": "scene.bin"
    }
  ],
  "extensionsUsed": [
    "KHR_materials_transmission"
  ],
  "materials": [
    {
      "doubleSided": true,
      "name": "LMP0002_Metal",
      "pbrMetallicRoughness": {
        "baseColorFactor": [
          0.8,
          0.8,
          0.8,
          1.0
        ],
        "roughnessFactor": 0.25
      }
    },
    {
      "alphaMode": "BLEND",
      "doubleSided": true,
      "extensions": {
        "KHR_materials_transmission": {
          "transmissionFactor": 1.0
        }
      },
      "name": "LMP0002_GlassNo_Refraction",
      "pbrMetallicRoughness": {
        "baseColorFactor": [
          1.0,
          1.0,
          1.0,
          0.25
        ]
      }
    },
    {
      "alphaMode": "BLEND",
      "doubleSided": true,
      "name": "LMP0002_Plexiglass",
      "pbrMetallicRoughness": {
        "baseColorFactor": [
          1.0,
          1.0,
          1.0,
          0.2578125
        ]
      }
    },
    {
      "doubleSided": true,
      "name": "LMP0002_Conductor",
      "pbrMetallicRoughness": {
        "baseColorFactor": [
          0.0,
          0.0,
          0.0,
          1.0
        ],
        "metallicFactor": 0.0,
        "roughnessFactor": 0.25
      }
    },
    {
      "doubleSided": true,
      "name": "LMP0002_Filament",
      "pbrMetallicRoughness": {
        "baseColorFactor": [
          0.147954,
          0.147954,
          0.147954,
          1.0
        ],
        "roughnessFactor": 0.5
      }
    },
    {
      "doubleSided": true,
      "name": "LMP0002_Emitter",
      "pbrMetallicRoughness": {
        "baseColorFactor": [
          0.147954,
          0.147954,
          0.147954,
          1.0
        ],
        "roughnessFactor": 0.5
      }
    }
  ],
  "meshes": [
    {
      "name": "Object_0",
      "primitives": [
        {
          "attributes": {
            "NORMAL": 1,
            "POSITION": 0,
            "TEXCOORD_0": 2
          },
          "indices": 3,
          "material": 0,
          "mode": 4
        }
      ]
    },
    {
      "name": "Object_1",
      "primitives": [
        {
          "attributes": {
            "NORMAL": 5,
            "POSITION": 4,
            "TEXCOORD_0": 6
          },
          "indices": 7,
          "material": 1,
          "mode": 4
        }
      ]
    },
    {
      "name": "Object_2",
      "primitives": [
        {
          "attributes": {
            "NORMAL": 9,
            "POSITION": 8,
            "TEXCOORD_0": 10
          },
          "indices": 11,
          "material": 2,
          "mode": 4
        }
      ]
    },
    {
      "name": "Object_3",
      "primitives": [
        {
          "attributes": {
            "NORMAL": 13,
            "POSITION": 12,
            "TEXCOORD_0": 14
          },
          "indices": 15,
          "material": 3,
          "mode": 4
        }
      ]
    },
    {
      "name": "Object_4",
      "primitives": [
        {
          "attributes": {
            "NORMAL": 17,
            "POSITION": 16,
            "TEXCOORD_0": 18
          },
          "indices": 19,
          "material": 4,
          "mode": 4
        }
      ]
    },
    {
      "name": "Object_5",
      "primitives": [
        {
          "attributes": {
            "NORMAL": 21,
            "POSITION": 20,
            "TEXCOORD_0": 22
          },
          "indices": 23,
          "material": 5,
          "mode": 4
        }
      ]
    }
  ],
  "nodes": [
    {
      "children": [
        1
      ],
      "matrix": [
        1.207370638847351,
        0.0,
        0.0,
        0.0,
        0.0,
        2.6809013650094273e-16,
        -1.207370638847351,
        0.0,
        0.0,
        1.207370638847351,
        2.6809013650094273e-16,
        0.0,
        0.0,
        0.0,
        0.0,
        1.0
      ],
      "name": "Sketchfab_model"
    },
    {
      "children": [
        2
      ],
      "name": "root"
    },
    {
      "children": [
        3
      ],
      "matrix": [
        1.0,
        0.0,
        0.0,
        0.0,
        0.0,
        2.220446049250313e-16,
        1.0,
        0.0,
        0.0,
        -1.0,
        2.220446049250313e-16,
        0.0,
        0.0,
        0.0,
        0.0,
        1.0
      ],
      "name": "GLTF_SceneRootNode"
    },
    {
      "children": [
        4,
        5,
        6,
        7,
        8,
        9
      ],
      "name": "#LMP0002_Single_Light_Bulb(No_Refraction)_0"
    },
    {
      "mesh": 0,
      "name": "Object_4"
    },
    {
      "mesh": 1,
      "name": "Object_5"
    },
    {
      "mesh": 2,
      "name": "Object_6"
    },
    {
      "mesh": 3,
      "name": "Object_7"
    },
    {
      "mesh": 4,
      "name": "Object_8"
    },
    {
      "mesh": 5,
      "name": "Object_9"
    }
  ],
  "scene": 0,
  "scenes": [
    {
      "name": "Sketchfab_Scene",
      "nodes": [
        0
      ]
    }
  ]
}
